<?xml version="1.0" encoding="utf-8"?>
<svg viewBox="0 0 500 500" xmlns="http://www.w3.org/2000/svg">
  <g transform="matrix(1, 0, 0, 1, -5.684341886080802e-14, 0)">
    <path d="M 390.068 39.223 C 396.433 51.448 394.561 290.899 394.561 303.418 C 394.561 315.937 389.564 319.782 389.692 328.684 C 389.82 337.586 393.192 340.322 393.08 350.732 C 392.968 361.142 381.935 371.824 362.777 371.768 C 347.524 371.723 334.329 380.847 329.062 389.923 L 329.062 32.163 C 360.86 32.638 387.598 34.479 390.068 39.223 Z" style="stroke: rgb(0, 0, 0); fill: rgb(52, 168, 83); paint-order: stroke; stroke-width: 0px;"/>
    <path style="stroke: rgb(0, 0, 0); fill: rgb(66, 133, 244); paint-order: fill; stroke-width: 0px;" d="M 194.494 463.654 C 181.385 463.319 183.302 451.128 170.81 447.747 C 158.318 444.366 162.052 452.579 154.728 453.142 C 147.404 453.705 145.249 449.228 139.596 451.534 C 133.943 453.84 134.593 466.801 122.502 468.054 C 110.411 469.307 101.108 425.503 106.996 409.807 C 112.884 394.111 137.242 390.44 146.824 368.031 C 156.406 345.622 145.401 324.892 143.689 313.026 C 141.977 301.16 150.88 291.926 151.323 270.842 C 151.766 249.758 144.098 47.955 150.335 37.676 C 156.572 27.397 167.256 48.067 185.751 46.812 C 191.013 46.455 195.745 45.264 199.824 43.744 L 199.824 462.533 C 198.393 463.289 196.662 463.709 194.494 463.654 Z"/>
    <path d="M 264.298 440.624 C 252.899 440.308 257.406 445.834 246.419 449.42 C 235.432 453.006 226.723 440.158 215.719 443.572 C 206.415 446.459 207.003 459.104 199.482 462.738 L 199.482 43.91 C 209.912 40.089 208.326 34.144 218.853 32.208 C 228.558 30.423 237.014 33.186 264.298 32.586 L 264.298 440.624 Z" style="stroke: rgb(0, 0, 0); fill: rgb(234, 67, 53); paint-order: stroke; stroke-width: 0px;"/>
    <path d="M 326.58 396.939 C 325.547 407.216 306.414 420.961 298.06 425.878 C 289.706 430.795 290.482 445.006 274.821 446.164 C 268.81 446.609 265.967 443.915 264.279 440.544 L 264.279 32.467 C 284.333 32.026 307.85 31.736 329.095 32.057 L 329.095 390.01 C 327.671 392.408 326.797 394.779 326.58 396.939 Z" style="stroke: rgb(0, 0, 0); fill: rgb(251, 188, 4); paint-order: stroke; stroke-width: 0px;"/>
  </g>
  <path d="M 187.806 179.086 L 196.992 158.41 L 201.718 158.41 L 210.992 179.086 L 205.971 179.086 L 198.38 160.832 L 200.3 160.832 L 192.709 179.086 Z M 192.443 174.655 L 193.654 171.022 L 204.347 171.022 L 205.587 174.655 Z M 213.147 179.086 L 213.147 158.41 L 222.54 158.41 Q 225.907 158.41 228.477 159.695 Q 231.046 160.98 232.494 163.299 Q 233.941 165.617 233.941 168.748 Q 233.941 171.879 232.494 174.198 Q 231.046 176.516 228.477 177.801 Q 225.907 179.086 222.54 179.086 Z M 217.962 175.187 L 222.303 175.187 Q 224.365 175.187 225.889 174.404 Q 227.413 173.622 228.255 172.16 Q 229.097 170.698 229.097 168.748 Q 229.097 166.769 228.255 165.322 Q 227.413 163.875 225.889 163.092 Q 224.365 162.309 222.303 162.309 L 217.962 162.309 Z M 247.438 179.44 Q 245.046 179.44 242.993 178.658 Q 240.94 177.875 239.434 176.428 Q 237.927 174.98 237.086 173.031 Q 236.244 171.082 236.244 168.748 Q 236.244 166.415 237.086 164.465 Q 237.927 162.516 239.449 161.069 Q 240.97 159.621 243.022 158.839 Q 245.075 158.056 247.468 158.056 Q 250.156 158.056 252.341 158.986 Q 254.527 159.917 256.004 161.718 L 252.903 164.554 Q 251.869 163.343 250.554 162.723 Q 249.24 162.102 247.704 162.102 Q 246.257 162.102 245.046 162.59 Q 243.835 163.077 242.949 163.963 Q 242.063 164.849 241.575 166.06 Q 241.088 167.271 241.088 168.748 Q 241.088 170.225 241.575 171.436 Q 242.063 172.647 242.949 173.533 Q 243.835 174.419 245.046 174.907 Q 246.257 175.394 247.704 175.394 Q 249.24 175.394 250.554 174.759 Q 251.869 174.124 252.903 172.913 L 256.004 175.748 Q 254.527 177.55 252.341 178.495 Q 250.156 179.44 247.438 179.44 Z" transform="matrix(3.005368947982788, 0, 0, 3.0470550060272217, -395.17109074058965, -361.7348411830628)" style="fill: rgb(255, 255, 255); paint-order: stroke; stroke: rgb(255, 255, 255); stroke-width: 0px;"/>
</svg>